<?xml version="1.0" encoding="utf-8"?>
<!-- Generator: Adobe Illustrator 27.9.0, SVG Export Plug-In . SVG Version: 6.00 Build 0)  -->
<svg version="1.1"
	 id="svg23" xmlns:inkscape="http://www.inkscape.org/namespaces/inkscape" xmlns:sodipodi="http://sodipodi.sourceforge.net/DTD/sodipodi-0.dtd" xmlns:svg="http://www.w3.org/2000/svg" sodipodi:docname="logo.svg"
	 xmlns="http://www.w3.org/2000/svg" xmlns:xlink="http://www.w3.org/1999/xlink" x="0px" y="0px" viewBox="0 0 308.8 304.9"
	 style="enable-background:new 0 0 308.8 304.9;" xml:space="preserve">
<style type="text/css">
	.st0{fill:#F57C3E;}
	.st1{fill:#FFFFFF;}
</style>
<sodipodi:namedview  bordercolor="#000000" borderopacity="0.25" id="namedview25" inkscape:deskcolor="#d1d1d1" inkscape:pagecheckerboard="0" inkscape:pageopacity="0.0" inkscape:showpageshadow="2" pagecolor="#ffffff">
	</sodipodi:namedview>
<g id="SvgjsG2685" transform="matrix(0.9820592540669653,0,0,0.9820592540669653,-0.054560523427421584,0)">
	<g id="g17">
		<path id="path3" class="st0" d="M57.6,40.2H59l-1.2-0.6L57.6,40.2z M61.4,38.5c0,0.3,0,0.3,0.3,0.3l1.2-0.9
			C62.2,37.6,61.9,37.6,61.4,38.5z M50,46.4l0.9-0.6c0.3-0.3,0.3-0.6,0.3-0.6h-0.6L50,46.4C49.7,46.1,49.7,46.4,50,46.4z M56.4,37.9
			h-0.3l-0.6,0.6h0.9L56.4,37.9z M50.3,44.9l1.7-1.5c0.3-0.3,0.3-0.6,0.3-0.9h-0.9L48,45.8L47.4,47l2-1.7L50.3,44.9z"/>
		<path id="path5" class="st0" d="M28.1,68.5v-0.6c0.2-1.3,1-2.4,2-3.2l2.6-1.7l1.5-1.7l2-2l1.2-1.2l1.2-0.9c1-0.6,1.9-1.5,2.3-2.6
			l1.2-1.5c1.1-1.1,2.1-2.4,2.9-3.8l0.6-0.9l0.9-0.6l-0.6-0.9l1.2-1.5c2.3-1.7,4.1-4.1,6.4-5.8l0.9-0.9c0.3-0.7,0.8-1.3,1.5-1.7
			l2.3-1.2h1.2c0.9-0.3,1.6-1,2-1.7v-0.6c0.9-1.7,2.2-3.1,3.8-4.1l2.3-1.5l0.6-0.6l1.2-1.2l2.9-1.5h0.6L69.5,26l-4.1,2.9
			c-1.7,1.5-4.1,1.7-5.2,4.1h0.9c-2,0.6-4.1,1.5-5,3.5s-2.3,1.7-3.5,2.6c-0.5,0.1-0.9,0.6-0.9,1.2c-2.3-0.3-3.2,1.5-4.4,2.6v2.3
			c-1.9,0.9-3.5,2.3-4.7,4.1C38,49.6,38,55.4,34,56.5h-0.3c-0.1,0.2-0.1,0.4,0,0.6c-0.9,0-1.5,0.6-1.2,1.5L31.9,60
			c-2,1.2-1.7,3.2-2.9,5c-2.3,1.5-3.2,4.4-5,6.4l0.9,1.5l0.6-0.6C26.3,71,27.2,69.7,28.1,68.5z M156.9,5.3l1.7,0.6h0.6
			c1.3,0.6,2.7,0.8,4.1,0.6c1.8-0.3,3.7-0.2,5.5,0.3h3.5c1.2-0.3,2.5,0.1,3.5,0.9c0.1,0.1,0.1,0.2,0,0.3h-1.2
			c-0.1,0.1-0.1,0.2,0,0.3h2c1.2-0.5,2.6-0.5,3.8,0c0.6,0,0.3,0.3,0.6,0.6l1.5,0.6h-0.6c-0.6-1.2-1.5-1.2-2.3-1.2
			c-3.9-1.8-8.2-2.7-12.5-2.6h-2.3c-3.4-1-6.9-1.4-10.5-1.2h0.6L156.9,5.3z M178.1,14.3h0.6H178.1z M200,15.8c0.8,0.8,1.9,1,2.9,0.6
			h1.7c-1.5-1.2-3.3-1.9-5.2-2l-2-0.6l1.5,0.9L200,15.8z M190.1,12c0,0.3,0.3,0.6,0.6,0.9h0.6l1.5-0.9c-1.5-0.9-3.2-1.5-5-1.7l2,1.2
			L190.1,12z M211.6,19.8l2.3,1.5C213.4,20.4,212.8,19.8,211.6,19.8z"/>
		<path id="path7" class="st0" d="M288.2,217.3l1.7-4.7l1.7-4.4c0.6-1.5,1.7-5.2,2.3-7.6c0.1-0.7,0.4-1.4,0.9-2h0.3v-3.2
			c1.5-0.3,1.2-1.7,1.5-2.6l2.3-13.7c1.5-5.9,1.5-12.1,0-18.1c0.3-1.7-0.3-3.4-1.5-4.7v-12.5c-0.9-2.6,0.9-5.5-1.2-7.9l-2.3-9.3
			c0-0.2,0-0.4,0-0.6l-0.6-1.7c-0.2-0.4-0.2-0.8,0-1.2h0.3c0.9,0,0.9-1.5,0.9-2.6c-0.2-1.1-0.6-2.2-1.2-3.2l-0.9-1.2
			c-0.4-0.6-0.6-1.3-0.6-2c0.1-2-0.1-3.9-0.6-5.8v-1.7c-0.6-2-1.2-4.4-1.7-6.4l-0.6-1.5c-0.6-1-1-2.1-1.2-3.2
			c-0.2-0.8-0.5-1.6-0.9-2.3l-1.7-2.9c-0.5-0.4-1.1-0.6-1.7-0.6h-0.3v-0.9h-0.6v-2.3h-0.3V86c0-0.1,0-0.2,0-0.3v-0.6
			c0.3-0.6,0.3-0.9-0.3-1.5c-0.5-0.5-0.9-1.1-1.2-1.7l-0.6-1.7c-0.4-1.3-1.1-2.5-2-3.5c-0.6-0.6-1.1-1.3-1.5-2l-2-4.7
			c-0.4-1-1-2-1.7-2.9l-1.7-2.3c-0.5-0.7-0.9-1.5-1.2-2.3l-0.6-0.9c-0.3-0.4-0.4-1-0.3-1.5c0-0.5-0.2-0.9-0.6-1.2l-1.2-0.9v0.6
			c0.3,0.6,0,0.9-0.3,0.9h-0.6l0.9,2.9l0.9,1.5l2,2.6h-0.3l-0.6-0.6l-0.6-0.6c-0.3-1.8-1.7-3.1-3.5-3.2v-2c-0.9-3.5-4.7-3.8-6.4-6.1
			c-0.6-1.4-1.8-2.3-3.2-2.6l-2.3-2.6c-2.4-3.5-5.5-6.4-9-8.7l-2.3-1.7l-1.2-0.9c-2-2-2.9-5.2-6.4-5.2l-2.3-1.5l-2.6-2
			c-0.9-2.1-2.9-3.6-5.2-3.8c-1.9-1.7-4.2-2.9-6.7-3.5l0.6,0.6l1.5,1.2l3.8,2c2.3,1.2,4.3,2.8,6.1,4.7c1.3,1.3,2.8,2.3,4.4,3.2
			l1.7,1.5c0.3,0.3,0.6,0.6,0.3,0.9h-0.3l-2.6-0.9c-2.1-0.4-4.1-1.2-5.8-2.3l-3.5-1.7l-3.8-2h-0.6c-0.9-0.3-1.2-1.2-2.3-1.5
			l-2.3-0.6l-7.3-1.5c-1-0.5-1.9-1.2-2.6-2c-0.9,0-1.8-0.3-2.6-0.9l-2.9-1.2c-2.8-0.6-5.5-1.3-8.2-2.3l-1.7-0.6l-2.9-0.9h-1.5
			l-0.6-0.9V16h-4.7l-1.7-1.5l-1.2,0.6l-1.2,0.6h-0.6l-2.6-1.5c-1.7,1.7-3.2-0.6-4.7-0.3l-2.9-0.9c-1.1,0.6-2.4,0.6-3.5,0H158
			c-0.9-0.1-1.5-0.9-1.5-1.7l0.9-0.6h1.7c0.2,0.3,0.3,0.6,0.3,0.9c0,0.6,0.6,0.6,1.5,0.6h0.6l-1.2-1.7c-0.8-0.7-1.9-0.9-2.9-0.6
			l-2.9,0.9h-0.3c0.9,0.6,0.6,0.9,0.6,1.5h-4.7l-1.2-0.6l-2.3-1.2h-0.3l-2-0.6h-6.7l1.2-0.6l2.3-0.6h0.9l5-0.9l3.2-0.6l1.7-0.6h-3.2
			c-3.3-0.7-6.6-0.7-9.9,0H135l-9.9-0.3c-4.1,0.3-8.2,0-11.4,3.5c-7.3-1.2-13.7,2-20.1,5.2l-6.4,2.6c-4.1,0.6-7.8,2.4-10.8,5.2h0.9
			l1.5-0.9l2.3-1.5l3.8-1.7l2.9-0.6c1.8-1.2,3.7-2.1,5.8-2.6l2.6-0.9h0.6c0.3,0.6,1.5,0,2,0h0.6c0.3,0,0.3,0.3,0,0.3l-1.7,1.2
			l2.9-0.9l2.3-0.6l-3.8,2l-3.8,1.2c-0.8,0.2-1.4,0.8-1.7,1.5l-0.9,1.5h0.9l1.2-0.6c0.6-0.9,1.5-1.5,2.6-1.7l4.4-1.5h1.5
			c0.2-0.1,0.4,0,0.4,0.1c0.1,0.2,0,0.4-0.1,0.4l0,0c-0.6,0.6-1.7,0.9-2.3,1.5h0.6l-9.3,2.6l-11.1,4.7c-1.9,1.7-4.2,2.9-6.7,3.5
			c-1.5,1.3-3.1,2.4-5,3.2l-2.3,0.6c-0.7,1.5-2.1,2.5-3.8,2.6l-0.9,1.5c-0.9,1.3-2.1,2.4-3.5,3.2H59v-0.3l-0.6,0.6l-0.6,0.6
			l-2.9,0.6h-1.5l-1.2,1.5c-0.3,0.3-0.3,0.6,0,0.6h0.3c-1.7,1.7-2.9,4.1-5.2,5l-3.8,4.4c-1.7,3.5-5.2,4.7-7.6,7.6
			c-2.3,2.9-4.1,11.4-11.4,12.5l-0.6-0.9l-0.6,1.5c-0.3,0.8-0.6,1.6-1.2,2.3c-1.3,2-2.5,4-3.5,6.1c-0.3,0.4-0.4,1-0.3,1.5
			c0,0.8-0.2,1.6-0.6,2.3L16.2,90h0.6c0.9,0,0.9,0.9,1.2,1.7l2.3-3.2c0.4-0.8,1-1.5,1.7-2c1.1-0.6,2.1-1.5,2.6-2.6l0.9-0.9l1.2-1.2
			l1.7-3.2H29c0.3,0.3,0.3,0.3,0.6,0l0.6-1.2h1.5v2.3l1.5-1.5c0.3-0.5,0.3-1,0-1.5c0-0.3,0.1-0.6,0.3-0.9c0.4-0.4,0.7-0.9,0.9-1.5
			c0.3-1.2,1.2-2.2,2.3-2.6l0.9-0.6l0.9-0.9c1-0.7,1.8-1.7,2.3-2.9l-0.6-0.9c0-0.3,0.3-0.9,0.6-1.2h1.5l1.7-2.3l1.7-0.9h0.6
			c-6,6.5-11.3,13.5-16,21H30h0.3C24,93.2,18.8,104.2,15,115.7h-1.5l-1.5-1.2c-0.6-0.6-0.3-2-1.2-2.6h0.3c0.9-1.5-0.3-3.5,0.9-5
			s0.3-4.1-2.6-3.5s-4.4,1.5-3.8,4.4c0.6,2.9-2.9,5.2-3.2,8.4s-1.5,1.5-0.9,2.6v11.4c0.3,2.3-1.5,5.2,2.3,6.1l3.8,2.6
			c0.3,1.5-1.5,4.7,2.6,3.8c-0.5,4.8-0.8,9.7-0.9,14.6c0,3.2,0.3,6.4,0.3,9.6v-1.2c-0.3-1.2-0.3-2.3-0.6-3.8l-0.9,0.9v-0.6H6.9
			c0,1.5-0.3,2.3-1.2,2.6c-0.2,0.4-0.3,1-0.3,1.5c0,0.3,0.3,0.9,0.6,0.6c0.3-0.3,1.2,0.6,2,1.2c0.9,0.6-0.6,0.9-1.2,0.6
			s-0.6,0.3-0.6,0.9v0.9l1.5,4.4c0,0.9-0.3,1.7-0.3,2.6c0,0.8,0.2,1.6,0.6,2.3H7.2v-0.9l-2-0.6v-1.7c0.1-0.5,0.1-1,0-1.5
			c-0.4-1.7-0.7-3.5-0.9-5.2c-0.6-3.4-0.7-6.8-0.6-10.2c0-0.5,0.1-1,0.3-1.5v0.6c0.1,0.5,0.2,1,0.3,1.5c0,0.4,0.1,0.8,0.3,1.2
			c0.3,0.6,0.6,1.2,1.2,1.2S6,162.3,6,162c0-0.5-0.1-1-0.3-1.5c-0.5-1.2-0.8-2.5-0.9-3.8c-0.1-0.7-0.4-1.4-0.9-2
			c-0.4-0.8-0.6-1.7-0.6-2.6v-2.3c0-0.9,0.3-1.7,0.3-2.6c0.1-0.4,0-0.8-0.3-1.2H3.1c-2.3,1.2-2,0.6-2.9,4.7v5.2c0,2-0.3,4.1,0,6.1
			c0,2.2,0.1,4.5,0.6,6.7c0.1,0.5,0.1,1,0,1.5c0,0.9,0.1,1.8,0.3,2.6c0.2,1.2,0.3,2.5,0.3,3.8c-0.2,1.7,0,3.4,0.6,5
			c0.1,0.4,0.1,0.8,0,1.2c-0.1,0.8,0,1.6,0.3,2.3c0.3,0.9,0.5,1.7,0.6,2.6c0.3,2.2,0.8,4.3,1.5,6.4C4.7,195,4.9,196,5,197
			c0.1,0.7,0.4,1.4,0.9,2c0.7,1,1.2,2.2,1.5,3.5c0.2,1,0.5,2,0.9,2.9l1.2,4.1c0.4,1.5,0.9,3,1.7,4.4c1,1.9,1.8,4,2.3,6.1l0.6,1.5
			c0.7,0.8,1.2,1.8,1.5,2.9c0.2,0.9,0.6,1.6,1.2,2.3c0.3,0.4,0.5,0.9,0.6,1.5c0.3,0.9,0.6,1.2,1.2,0.9h0.3v2.6l1.5,2.9l1.5,2.9
			l3.2,3.5l1.2,1.2c0.9,0.9,2,1.5,2.6,2.9l1.2,0.9c0.5,0.3,0.8,0.9,0.9,1.5l0.6,2c0.4,1,1,1.8,1.7,2.6l1.2,0.6h0.9
			c0.3,0.1,0.5,0.4,0.4,0.7c0,0,0,0.1-0.1,0.1c0,0.5,0,1,0,1.5c0.2,0.6,0.6,1.1,1.2,1.5h0.6c1.2-0.3,2.3,0.6,3.5,2h0.3
			c0-0.3,0.3-0.3,0-0.6v-0.6c0-0.3,0.3-0.6,0.6-0.3c0.6,0.4,0.9,1.1,0.9,1.7v0.6c0.2,1.2,0.6,2.4,1.2,3.5c1.5,0.9,1.5,0.9,1.5,0.3
			s0-0.6,0.6-0.6h1.2l0.6,0.9l2.3,1.5c2,2.3,5.2,2,7.6,3.5l5,5h0.6c0.9,2.1,2.5,3.8,4.7,4.7c0.6,1,1.7,1.7,2.9,1.7
			c0,1.5,1.7,1.7,3.2,2c0.6,0.7,1.4,1.1,2.3,1.2h0.6c1.1,1.2,2.8,1.7,4.4,1.5l2.6,2.3l7,2.6v0.6c1.5,3.2,5,2,7.3,2.9l3.2,1.2h1.2
			c3.5,0.9,7,2.6,10.8,1.5c-0.1,0.4-0.1,0.8,0,1.2c3.2,2,7,0,10.5,1.2c1.6,0.6,3.3,0.7,5,0.3h0.3l2.3,0.6h0.9l2.6,0.6h0.9
			c0.5-0.3,1-0.3,1.5,0c1.4,0.5,2.9,0.9,4.4,1.2h1.7c0.6-0.4,1.4-0.4,2,0H156c1.6,0.2,3.1,0.1,4.7-0.3h2.9l1.5-0.6h9.6l1.7-0.6
			l1.5-0.9h6.4v1.7h-3.8l-3.5,0.6c-1.2,0.3-2,0-2.9,0.3c-0.9,0.4-1.9,0.6-2.9,0.6l-3.8,0.9h-1.2c-1.5-0.3-3-0.2-4.4,0.3h-5.2
			c-0.8,0.4-1.8,0.4-2.6,0h-13.1c-1.1-0.2-2.3,0.1-3.2,0.9h-0.9l-0.9-0.6v-0.9h-3.5c-1.2-0.5-2.5-0.8-3.8-0.9h-7.3l-2-0.6l-1.5-0.6
			l-6.1-1.2h-1.5l-1.5-0.6l-6.1-2l-4.1-1.2h-6.4c-0.3,0-0.3,0.3-0.3,0.6h0.6c3.8,1.5,7.6,2.6,11.4,4.4h0.9l2.6,0.6l4.1,1.2h3.8
			l1.7,0.6l2,0.9l5,0.9l3.2,0.6l3.2,0.6h2.3l2.3,0.6h9l2.9,0.6h6.7l2.9-0.6h6.4c1.2,0,1.7-0.3,2-0.9h2.9c0.9,0.1,1.7-0.2,2.3-0.9
			c-0.3,0.3,0,0.3,0.3,0.6h1.2v-0.6c0-0.3,0-0.3,0.6-0.6c0.6-0.3,1.7-0.3,2,0.3h1.2l0.9-0.6c0.6,0,0.6,0,0.6,0.3h2l1.5-0.6l2.3-1.2
			c0.3,0.9,1.2,1.2,3.8,0.6l3.8-1.2h3.5c2.6-0.3,5.8,0,7.9-2h0.6l1.2-0.9l3.2-0.9c2.1-0.4,4-1.2,5.8-2.3l1.2-0.6h0.3l2.6-1.7
			l1.2-0.6l1.5-0.6h1.2c1.2-0.3,1.2-0.3,1.5-1.2c0.3-0.9,0-0.3-0.6-0.3H221l1.2-1.5h0.6c0.9-0.3,1.5-0.6,2-0.3h0.6
			c1.3-0.4,2.3-1.4,2.6-2.6c0.9-1.2,3.2-0.6,3.8-2.3l12.5-9c3.2-0.3,4.1-3.2,6.4-5c2.3-1.7,6.7-3.2,8.7-6.4l2.6-1.2h0.3
			c1.5,0.4,3.1-0.5,3.5-2v1.2c2.3-1.2,5.2,0.9,7.6-1.5s0-7.9,2.9-11.1l2-1.5c2.2-3.8,3.7-7.9,4.4-12.2l0.6-0.6c0-0.9,0-2,1.2-2.6
			c1.1-0.8,1.3-2.4,0.6-3.5h-0.6c0.2-0.3,0.2-0.6,0-0.9c2,0,2.3-2,3.5-2.9v-4.1c0-0.2,0-0.4,0-0.6
			C288.1,218.7,288.2,218,288.2,217.3L288.2,217.3z"/>
		<path id="path9" class="st0" d="M76.8,22.8l-0.9,0.6l-1.2,0.9l1.5-0.6L76.8,22.8z M94.6,16.9h0.3l0.9-0.6h-1.2L94.6,16.9z
			 M87,19.8l-0.3,0.3H87V19.8z M26.7,72l-1.2,1.2h0.6C26.5,72.9,26.8,72.5,26.7,72z M35.4,61.8c0.4-0.5,0.7-1.1,0.9-1.7
			c-0.6,0.4-1.1,0.9-1.5,1.5c-0.3,0.3-0.3,0.6,0,0.6L35.4,61.8z M31.9,66.2v-0.6c-0.6,0-1.5,0.9-2.3,0.9V67
			C30.5,67.9,30.8,67.6,31.9,66.2z M215.1,22.5h0.3l-1.5-0.9L215.1,22.5z M207.9,18.4c1.5-0.3,2.3,1.2,3.5,1.5h0.3l-0.9-0.6
			l-2.9-1.5l-3.2-1.5l0.9,0.6L207.9,18.4z M187.8,10.5h-0.3L184,9.9h1.5L187.8,10.5z M193.6,12.6l3.8,1.2
			C196.2,13.1,194.9,12.7,193.6,12.6z M167.4,12.6c0.3-0.4,0.5-0.9,0.6-1.5h-1.5l-0.9,0.9l1.2,0.9L167.4,12.6z M181.4,13.4
			c0,0.1,0,0.2,0,0.3V13.4z M311.8,165.8H311v-1.2h0.9c0.3,0,0.6-0.9,0.3-1.2c-0.3-0.3-0.3-2-0.9-2.3c-0.4-0.1-0.6-0.5-0.6-0.9
			l0.6-1.2c0-0.2,0-0.4,0-0.6h-0.6l-0.6-0.9c-0.3,0.9-0.6,1.7-1.2,2c0,0.2,0,0.4,0,0.6c0,0.3,0,0.6-0.3,0.6h-0.3
			c-0.1,0.3-0.2,0.6-0.3,0.9c-0.6,0.8-1,1.7-1.2,2.6c-0.1,0.4,0,0.9,0.3,1.2h0.3c-0.3,0.7-0.4,1.5-0.3,2.3v1.2c0,0.5-0.1,1-0.3,1.5
			h-0.3l-1.2,2v1.7c0.1,1.1-0.2,2.3-0.9,3.2H304l-0.6-0.6c-0.5-0.7-0.6-1.6-0.3-2.3c0.3-1.6,0.4-3.3,0.3-5c0-0.3-0.3-0.6-0.3-0.6
			c-0.2,0.3-0.3,0.6-0.3,0.9v1.7c0,0.6-0.3,1.7-0.9,2s-0.3,0.6-0.3,0.9L301,176l0.9,1.5c-0.6,0.6-1.2,0.3-1.5-0.3v2.9h0.9v1.2
			c-0.5,1.3-0.8,2.7-0.9,4.1c0,0.4,0,0.8,0,1.2c0,1.3-0.2,2.6-0.6,3.8c-0.1,0.6-0.1,1.2,0,1.7l-0.9,2c-0.2,0.7-0.5,1.4-0.9,2
			l-0.9,1.7l-2.6,7.9c0.9,2.6-1.2,4.4-2.3,6.1c0.3,2.5-0.5,5-2.3,6.7v1.2c0,0.3,0.3,0.6,0.9,0.3l1.2-0.9l0.6-1.2h0.6
			c0.3,0.3,0.6,0.3,1.2-0.3h0.6c0.5,0.4,0.6,1.2,0.3,1.7c-0.2,0.8-0.3,1.5-0.3,2.3c0,0.3,0,0.6,0.3,0.6h0.6c0.3,0.3,0.6,0,0.9-0.9
			l0.6-1.5h0.9c1.2-0.3,1.2-0.3,1.7-1.7l1.5-2.6l0.9-1.7l1.2-2.9c0-1,0.3-2.1,0.9-2.9c0.4-0.5,0.5-1.2,0.3-1.7c0-0.6,0-0.9,0.6-1.7
			l0.9-1.2l1.5-2.9c0.1-0.9,0.3-1.8,0.6-2.6c0.6-1.2,0.9-2.5,0.9-3.8c0.2-0.9,0.5-1.8,0.9-2.6V190c-0.3-0.6-0.3-0.6,0-1.7
			s0.3-0.6,0.6-0.6c0.2,0.2,0.3,0.6,0.3,0.9l0.6-1.5c0.4-0.8,0.6-1.7,0.6-2.6v-0.9c0-0.3,0-0.9-0.3-0.9v1.2c-0.6,0-0.9,0.6-1.5,0.9
			c0.1-0.8,0.2-1.5,0.3-2.3l1.2-0.6c0.5-0.5,0.7-1.1,0.6-1.7c0-0.3,0-0.6,0-0.9c0.4-1.3,0.6-2.7,0.6-4.1v-0.6l0.9-2.9h0.3
			c0.3-0.2,0.4-0.6,0.3-0.9h-0.3c-0.2-0.8,0-1.7,0.6-2.3C314.1,167.4,313.1,166.3,311.8,165.8L311.8,165.8z M26.4,85.4
			c0.1-0.2,0.1-0.4,0-0.6l-0.6-0.6l-0.6,0.6l-0.9,1.7c0,0.9-0.9,1.7-0.9,2.6v0.6h0.3L26.4,85.4z M306.9,157.6h0.3
			c0.6-1.1,0.8-2.3,0.6-3.5c-0.1-0.6,0.1-1.1,0.6-1.5h0.3V152l-0.6-0.6h-0.3c-0.3,0.3-0.6,0.9-0.9,0.9s-0.3,0.3-0.3,0.9v0.9
			C306.4,155.3,306.5,156.5,306.9,157.6L306.9,157.6z M38.3,258.1c-0.3,0,0,0.6,0,0.9l2.3,2.3H41c-0.6-0.9-0.9-1.7-0.6-2
			c-0.5,0-1-0.2-1.5-0.6L38.3,258.1z M309.5,155h0.3c0.1-0.6,0.1-1.2,0-1.7c-0.9,0.3-0.9,0.3-0.9,1.7
			C308.9,156.4,309.2,155.3,309.5,155L309.5,155z"/>
		<path id="path11" class="st0" d="M310.7,176.3c0.3-0.4,0.4-1,0.3-1.5c0-0.3-0.3-0.6-0.3-0.3h-0.6v0.6
			C310.1,176.3,310.4,176.5,310.7,176.3L310.7,176.3z M311,152.4h-0.3v1.7C310.9,153.6,311,153,311,152.4z M49.7,265.4h-0.6v0.6
			l0.6,0.6h0.6V266L49.7,265.4z M301.9,168.4c0-0.3,0-0.3-0.3-0.3L301.9,168.4z M28.7,247.6l1.5,1.5l-1.2-1.7L28.7,247.6z"/>
		<polygon id="circle13" class="st0" points="30.4,249.3 30.4,249.3 30.4,249.3 		"/>
		<path id="path15" class="st0" d="M28.1,83.3h-0.3v0.6v-0.6H28.1z M270.5,64.1l-0.6-0.9h-0.3L270.5,64.1z M16.8,90
			c0.2-0.1,0.3-0.4,0.3-0.6V90H16.8z M303.7,172.2v0.3V172.2z M47.7,265.1h-0.3c0.3,0.3,0.6,0,0.3-0.3V265.1z M48.2,267.1h0.3
			l-0.3-0.3V267.1z"/>
	</g>
</g>
<g>
	<path class="st1" d="M254.7,240.2h-54.4l-1.6-107.8L156.5,185L54.1,64.7h53.6l48.8,57.4l45-57.4l37.1,0.4l0.8,149L254.7,240.2z
		 M133.1,240.2H77.3V99.1l38.6,47l0.4,68.2L133.1,240.2z"/>
</g>
</svg>
