<?xml version="1.0" encoding="utf-8"?>
<!-- Generator: Adobe Illustrator 27.9.0, SVG Export Plug-In . SVG Version: 6.00 Build 0)  -->
<svg version="1.1" id="Layer_1" xmlns="http://www.w3.org/2000/svg" xmlns:xlink="http://www.w3.org/1999/xlink" x="0px" y="0px"
	 viewBox="0 0 373.4 373.4" style="enable-background:new 0 0 373.4 373.4;" xml:space="preserve">
<style type="text/css">
	.st0{fill:#FFFFFF;}
</style>
<g>
	<path class="st0" d="M63.3,243c-25.8-4.9-40.9-13.3-47.7-35.3c-6.8-21.8-1.5-40.3,14.3-56.3c7.6-7.7,17-12.6,25.9-18.4
		c13.6-8.8,29.2-14,42.1-24c4.3-3.4,10.2-4.5,15.2-7.1c18.8-9.9,37.4-20.1,56.2-30.1c5.8-3,10.9-7,17-9.8c3.7-1.7,7.4-2.2,10.4-1.1
		c14.5,5.2,29.7,7.3,44.5,10.9c20.4,4.9,40.8,10.1,61.5,13.9c4.1,6.1,11.2,0.7,16.5,4.4c4,2.8,9.9,3.5,15.1,3.8
		c5.9,0.4,10.8,4.3,17.1,3.2c3.4-0.6,8.6,5.2,9.2,8.7c0.7,4.4-0.3,8.2-4.3,10.7c-9.8,6.1-18.9,13-28.4,19.5
		c-9,6.2-19.2,10.7-27.7,17.4c-21.3,16.6-44.2,30.9-66.2,46.6c-6.7,4.8-11.6,6.5-20.3,3.9c-17.9-5.5-36.2-9.7-54.2-14.9
		c-17.9-5.2-36.2-9.2-54.1-14.7c-11.3-3.5-22.6-8-34.8-7.3c-8.4,0.5-15.4,3.3-21.3,9.7c-3.5,3.9-2.5,9.3-5.5,13.2
		c3.9,3,1.3,8.8,5.2,11.9c1.8,1.4,3.2,3.5,5,4.9c2.8,2.2,7.3,3.4,8.4,6.1c1.6,4.1,0.9,9,1,13.6C63.4,231.6,63.3,236.7,63.3,243z"/>
	<path class="st0" d="M155.9,234.8c6.3-0.3,11.2,0.8,16.5,2c14.1,3.3,27.4,9.9,42.7,9.2c8.6-0.4,15.7-3.4,22.1-7.7
		c11.7-7.8,24.2-14.5,35.4-23.2c5.8-4.6,11.8-9.4,18.3-13.2c6.5-3.8,12.6-8.1,18.6-12.7c5.5-4.2,11.1-8.7,17.9-10.8
		c2.4-0.7,4.1-4.9,6.9-2.4c2.7,2.4,6.6,2.8,8.1,7.5c3.1,9.3,1.9,18.2-6,22.7c-20.3,11.6-38.3,26.6-58,39
		c-14.9,9.4-29.3,19.5-43.7,29.7c-9.1,6.4-20,6.2-28.9,3.7c-13.4-3.7-27.2-5.9-40.4-10.4c-2.2-0.8-3.7-2.8-5.8-2.9
		c-3.2-0.1-3.7-1.6-3.7-4.3C155.9,252.7,155.9,244.3,155.9,234.8z"/>
	<path class="st0" d="M81.6,307.3c-0.3-0.3-0.9-0.6-0.9-0.9c0-37.6,0-75.2,0-113.4c4.1-0.7,7.7,0.1,12.3,1.7
		c11.4,4.1,23.5,6.6,35.5,8.6c4,0.7,6.8,4.7,11.4,3.2c1.1-0.4,2.3,1.1,2.1,2.8c-0.1,1.4,0,2.8,0,4.2c0,30.7,0,61.5-0.1,92.2
		c0,2.4,1.8,6-1.9,7.1c-3.3,1-4.6-2.5-6.5-4.3c-6-5.8-11.8-11.9-17.8-17.7c-4.6-4.4-7-4.6-11.5-0.3c-6.3,5.9-14.4,9.6-19.7,16.7
		C84,307.7,82.5,307.3,81.6,307.3z"/>
</g>
</svg>
