<?xml version="1.0" encoding="utf-8"?>
<!-- Generator: Adobe Illustrator 27.9.0, SVG Export Plug-In . SVG Version: 6.00 Build 0)  -->
<svg version="1.1" id="Layer_1" xmlns="http://www.w3.org/2000/svg" xmlns:xlink="http://www.w3.org/1999/xlink" x="0px" y="0px"
	 viewBox="0 0 373.4 373.4" style="enable-background:new 0 0 373.4 373.4;" xml:space="preserve">
<style type="text/css">
	.st0{fill:none;}
	.st1{fill:#FFFFFF;}
</style>
<path class="st0" d="M260.1,180.4c0-2.6-2-4.3-5.8-4.3h-8v9h7.7C257.7,185.1,260.1,183.5,260.1,180.4z"/>
<path class="st0" d="M214.7,181.4c0-3.2-2.5-5.2-6.7-5.2H200v10.6h8C211.9,186.7,214.7,184.7,214.7,181.4z"/>
<path class="st0" d="M254.6,187.7h-8.3v9.2h8.8c4,0,6.4-1.8,6.4-4.7C261.5,189.3,259.2,187.7,254.6,187.7z"/>
<path class="st0" d="M285.1,176.2H279v20.7h6.1c6.6,0,10.8-4.5,10.8-10.3S291.7,176.2,285.1,176.2z"/>
<g>
	<path class="st1" d="M78.8,184.3c11.2,13.5,28,21.1,45.6,20.5c13.9,0.7,27.4-4.5,37.2-14.3c8.9-9.1,13.8-21.4,13.6-34.1
		c0.6-12.1-4.2-23.9-13.2-32.1c-7.5-7.3-17.6-11.4-28.1-11.7c-4.1,0.1-8.2,0.6-12.2,1.6c-3.2,0.9-6.5,1.5-9.8,1.8
		c-7.2,0-10.9-4.4-10.9-13.1c0-14.7,7.3-27.3,22-37.9c4.2-3,8.6-5.7,13.2-8.1c14.3-6.2,29.8-9.3,45.4-9c31.5-0.5,62.4,8.5,88.7,25.8
		L251,101.5l26.9,17.7l36.4-52L302.6,58c-34.3-27.6-77.1-42.4-121.1-41.7c-71,0-120.6,43.5-120.6,105.9v0.8v3.6
		C60.9,151.2,67.2,170.6,78.8,184.3z"/>
	<path class="st1" d="M262.2,168c-13.9-0.7-27.4,4.5-37.2,14.3c-8.9,9.1-13.8,21.4-13.6,34.1c-0.5,12.1,4.3,23.8,13.2,31.9
		c7.6,7.5,17.8,11.7,28.4,11.9c4.1-0.1,8.2-0.6,12.2-1.6c3.2-0.9,6.5-1.5,9.8-1.8c7.2,0,10.9,4.4,10.9,13.1c0,3.1-0.3,6.1-1,9.1
		c-12,29.5-42.9,46.4-87.6,46.4c-37.4,0.1-73.8-11.8-103.9-34.1l24.3-28.4L92,243.2L48.2,295l11.1,10
		c37.9,33.7,86.8,52.3,137.5,52.1c5.7,0,11.3,0,16.7-0.8c29.3-1,57.4-12,79.7-31.1c21.2-19.2,31.9-45.6,31.9-79.4
		c0-24.5-5.8-43.6-17.3-57.3C296.6,175,279.8,167.4,262.2,168z"/>
</g>
</svg>
